<svg width="200" height="200" viewBox="0 0 200 200" fill="none" xmlns="http://www.w3.org/2000/svg">
<circle cx="100" cy="100" r="100" fill="#8A630A"/>
<path d="M88.5625 94H78V60.375L67.625 63.4062V55.4062L87.5938 48.5H88.5625V94ZM133.875 75.4062C133.875 81.5521 132.49 86.2917 129.719 89.625C126.969 92.9583 123.083 94.625 118.062 94.625C113 94.625 109.083 92.9479 106.312 89.5938C103.542 86.2396 102.156 81.5104 102.156 75.4062V67.0938C102.156 60.9479 103.531 56.2083 106.281 52.875C109.052 49.5417 112.958 47.875 118 47.875C123.042 47.875 126.948 49.5521 129.719 52.9062C132.49 56.2604 133.875 61 133.875 67.125V75.4062ZM123.344 65.75C123.344 62.4792 122.917 60.0417 122.062 58.4375C121.208 56.8125 119.854 56 118 56C116.188 56 114.865 56.75 114.031 58.25C113.219 59.75 112.781 62.0208 112.719 65.0625V76.6875C112.719 80.0833 113.146 82.5729 114 84.1562C114.854 85.7188 116.208 86.5 118.062 86.5C119.854 86.5 121.177 85.7396 122.031 84.2188C122.885 82.6771 123.323 80.2708 123.344 77V65.75Z" fill="white"/>
<path d="M58.2988 128H54.998V117.434H58.2988V128ZM54.8027 114.709C54.8027 114.24 54.972 113.856 55.3105 113.557C55.6491 113.257 56.0885 113.107 56.6289 113.107C57.1693 113.107 57.6087 113.257 57.9473 113.557C58.2858 113.856 58.4551 114.24 58.4551 114.709C58.4551 115.178 58.2858 115.562 57.9473 115.861C57.6087 116.161 57.1693 116.311 56.6289 116.311C56.0885 116.311 55.6491 116.161 55.3105 115.861C54.972 115.562 54.8027 115.178 54.8027 114.709ZM63.3574 117.434L63.4648 118.674C64.194 117.717 65.1999 117.238 66.4824 117.238C67.5827 117.238 68.403 117.567 68.9434 118.225C69.4902 118.882 69.7734 119.872 69.793 121.193V128H66.4922V121.33C66.4922 120.796 66.3848 120.406 66.1699 120.158C65.9551 119.904 65.5645 119.777 64.998 119.777C64.3535 119.777 63.875 120.031 63.5625 120.539V128H60.2715V117.434H63.3574ZM77.1562 125.031C77.1562 124.751 77.0098 124.527 76.7168 124.357C76.4238 124.188 75.8672 124.012 75.0469 123.83C74.2266 123.648 73.5495 123.41 73.0156 123.117C72.4818 122.818 72.0749 122.456 71.7949 122.033C71.515 121.61 71.375 121.125 71.375 120.578C71.375 119.608 71.7754 118.811 72.5762 118.186C73.377 117.554 74.4251 117.238 75.7207 117.238C77.1139 117.238 78.2337 117.554 79.0801 118.186C79.9264 118.817 80.3496 119.647 80.3496 120.676H77.0488C77.0488 119.829 76.6029 119.406 75.7109 119.406C75.3659 119.406 75.0762 119.504 74.8418 119.699C74.6074 119.888 74.4902 120.126 74.4902 120.412C74.4902 120.705 74.6335 120.943 74.9199 121.125C75.2064 121.307 75.6621 121.457 76.2871 121.574C76.9186 121.691 77.472 121.831 77.9473 121.994C79.5358 122.541 80.3301 123.521 80.3301 124.934C80.3301 125.897 79.9004 126.682 79.041 127.287C78.1882 127.893 77.0814 128.195 75.7207 128.195C74.8158 128.195 74.0085 128.033 73.2988 127.707C72.5892 127.382 72.0358 126.939 71.6387 126.379C71.2415 125.819 71.043 125.23 71.043 124.611H74.1191C74.1322 125.1 74.2949 125.458 74.6074 125.686C74.9199 125.907 75.3203 126.018 75.8086 126.018C76.2578 126.018 76.5931 125.926 76.8145 125.744C77.0423 125.562 77.1562 125.324 77.1562 125.031ZM85.7109 114.807V117.434H87.4492V119.719H85.7109V124.553C85.7109 124.95 85.7826 125.227 85.9258 125.383C86.069 125.539 86.3522 125.617 86.7754 125.617C87.1009 125.617 87.3743 125.598 87.5957 125.559V127.912C87.0033 128.101 86.3848 128.195 85.7402 128.195C84.6074 128.195 83.7708 127.928 83.2305 127.395C82.6901 126.861 82.4199 126.05 82.4199 124.963V119.719H81.0723V117.434H82.4199V114.807H85.7109ZM94.7051 128C94.5879 127.785 94.4837 127.469 94.3926 127.053C93.7871 127.814 92.9408 128.195 91.8535 128.195C90.8574 128.195 90.0111 127.896 89.3145 127.297C88.6178 126.691 88.2695 125.933 88.2695 125.021C88.2695 123.876 88.6927 123.01 89.5391 122.424C90.3854 121.838 91.6159 121.545 93.2305 121.545H94.2461V120.988C94.2461 120.018 93.8262 119.533 92.9863 119.533C92.2051 119.533 91.8145 119.917 91.8145 120.686H88.5234C88.5234 119.663 88.9564 118.833 89.8223 118.195C90.6947 117.557 91.8047 117.238 93.1523 117.238C94.5 117.238 95.5645 117.567 96.3457 118.225C97.127 118.882 97.5273 119.784 97.5469 120.93V125.607C97.5599 126.577 97.7096 127.32 97.9961 127.834V128H94.7051ZM92.6445 125.852C93.0547 125.852 93.3932 125.764 93.6602 125.588C93.9336 125.412 94.1289 125.214 94.2461 124.992V123.303H93.2891C92.1432 123.303 91.5703 123.817 91.5703 124.846C91.5703 125.145 91.6712 125.389 91.873 125.578C92.0749 125.76 92.332 125.852 92.6445 125.852ZM98.9922 122.639C98.9922 121.571 99.168 120.627 99.5195 119.807C99.8711 118.986 100.376 118.355 101.033 117.912C101.691 117.463 102.456 117.238 103.328 117.238C104.428 117.238 105.288 117.609 105.906 118.352L106.023 117.434H109.012V127.6C109.012 128.531 108.794 129.338 108.357 130.021C107.928 130.712 107.303 131.239 106.482 131.604C105.662 131.975 104.712 132.16 103.631 132.16C102.856 132.16 102.104 132.014 101.375 131.721C100.652 131.428 100.099 131.047 99.7148 130.578L101.092 128.645C101.704 129.367 102.511 129.729 103.514 129.729C104.972 129.729 105.701 128.98 105.701 127.482V127.15C105.07 127.847 104.272 128.195 103.309 128.195C102.02 128.195 100.978 127.704 100.184 126.721C99.3893 125.731 98.9922 124.41 98.9922 122.756V122.639ZM102.293 122.844C102.293 123.71 102.456 124.396 102.781 124.904C103.107 125.406 103.562 125.656 104.148 125.656C104.858 125.656 105.376 125.419 105.701 124.943V120.5C105.382 120.018 104.871 119.777 104.168 119.777C103.582 119.777 103.123 120.041 102.791 120.568C102.459 121.089 102.293 121.848 102.293 122.844ZM117.273 120.412L116.189 120.334C115.154 120.334 114.49 120.66 114.197 121.311V128H110.906V117.434H113.992L114.1 118.791C114.653 117.756 115.424 117.238 116.414 117.238C116.766 117.238 117.072 117.277 117.332 117.355L117.273 120.412ZM124.119 128C124.002 127.785 123.898 127.469 123.807 127.053C123.201 127.814 122.355 128.195 121.268 128.195C120.271 128.195 119.425 127.896 118.729 127.297C118.032 126.691 117.684 125.933 117.684 125.021C117.684 123.876 118.107 123.01 118.953 122.424C119.799 121.838 121.03 121.545 122.645 121.545H123.66V120.988C123.66 120.018 123.24 119.533 122.4 119.533C121.619 119.533 121.229 119.917 121.229 120.686H117.938C117.938 119.663 118.37 118.833 119.236 118.195C120.109 117.557 121.219 117.238 122.566 117.238C123.914 117.238 124.979 117.567 125.76 118.225C126.541 118.882 126.941 119.784 126.961 120.93V125.607C126.974 126.577 127.124 127.32 127.41 127.834V128H124.119ZM122.059 125.852C122.469 125.852 122.807 125.764 123.074 125.588C123.348 125.412 123.543 125.214 123.66 124.992V123.303H122.703C121.557 123.303 120.984 123.817 120.984 124.846C120.984 125.145 121.085 125.389 121.287 125.578C121.489 125.76 121.746 125.852 122.059 125.852ZM131.902 117.434L132.01 118.674C132.758 117.717 133.764 117.238 135.027 117.238C136.362 117.238 137.264 117.769 137.732 118.83C138.449 117.769 139.484 117.238 140.838 117.238C142.98 117.238 144.08 118.534 144.139 121.125V128H140.838V121.33C140.838 120.79 140.747 120.396 140.564 120.148C140.382 119.901 140.05 119.777 139.568 119.777C138.917 119.777 138.432 120.067 138.113 120.646L138.123 120.783V128H134.822V121.35C134.822 120.796 134.734 120.396 134.559 120.148C134.383 119.901 134.048 119.777 133.553 119.777C132.921 119.777 132.439 120.067 132.107 120.646V128H128.816V117.434H131.902ZM88.3477 145.795C88.3477 147.436 87.9766 148.747 87.2344 149.73C86.4987 150.707 85.5026 151.195 84.2461 151.195C83.276 151.195 82.4785 150.84 81.8535 150.131V155.062H78.5625V140.434H81.6387L81.7363 141.41C82.3678 140.629 83.1979 140.238 84.2266 140.238C85.5286 140.238 86.541 140.72 87.2637 141.684C87.9863 142.641 88.3477 143.959 88.3477 145.639V145.795ZM85.0566 145.59C85.0566 143.715 84.5098 142.777 83.416 142.777C82.6348 142.777 82.1139 143.057 81.8535 143.617V147.777C82.14 148.363 82.6673 148.656 83.4355 148.656C84.4837 148.656 85.0241 147.751 85.0566 145.941V145.59ZM89.3926 145.619C89.3926 144.564 89.5977 143.627 90.0078 142.807C90.418 141.98 91.0072 141.345 91.7754 140.902C92.5436 140.46 93.4453 140.238 94.4805 140.238C96.0625 140.238 97.3092 140.73 98.2207 141.713C99.1322 142.689 99.5879 144.021 99.5879 145.707V145.824C99.5879 147.471 99.1289 148.78 98.2109 149.75C97.2995 150.714 96.0625 151.195 94.5 151.195C92.9961 151.195 91.7884 150.746 90.877 149.848C89.9655 148.943 89.474 147.719 89.4023 146.176L89.3926 145.619ZM92.6836 145.824C92.6836 146.801 92.8366 147.517 93.1426 147.973C93.4486 148.428 93.901 148.656 94.5 148.656C95.6719 148.656 96.2708 147.755 96.2969 145.951V145.619C96.2969 143.725 95.6914 142.777 94.4805 142.777C93.3802 142.777 92.7845 143.594 92.6934 145.229L92.6836 145.824ZM104.51 151H101.209V136H104.51V151ZM110.018 151H106.717V136H110.018V151ZM117.586 148.031C117.586 147.751 117.439 147.527 117.146 147.357C116.854 147.188 116.297 147.012 115.477 146.83C114.656 146.648 113.979 146.41 113.445 146.117C112.911 145.818 112.505 145.456 112.225 145.033C111.945 144.61 111.805 144.125 111.805 143.578C111.805 142.608 112.205 141.811 113.006 141.186C113.807 140.554 114.855 140.238 116.15 140.238C117.544 140.238 118.663 140.554 119.51 141.186C120.356 141.817 120.779 142.647 120.779 143.676H117.479C117.479 142.829 117.033 142.406 116.141 142.406C115.796 142.406 115.506 142.504 115.271 142.699C115.037 142.888 114.92 143.126 114.92 143.412C114.92 143.705 115.063 143.943 115.35 144.125C115.636 144.307 116.092 144.457 116.717 144.574C117.348 144.691 117.902 144.831 118.377 144.994C119.965 145.541 120.76 146.521 120.76 147.934C120.76 148.897 120.33 149.682 119.471 150.287C118.618 150.893 117.511 151.195 116.15 151.195C115.245 151.195 114.438 151.033 113.729 150.707C113.019 150.382 112.465 149.939 112.068 149.379C111.671 148.819 111.473 148.23 111.473 147.611H114.549C114.562 148.1 114.725 148.458 115.037 148.686C115.35 148.907 115.75 149.018 116.238 149.018C116.688 149.018 117.023 148.926 117.244 148.744C117.472 148.562 117.586 148.324 117.586 148.031Z" fill="white"/>
</svg>
