<svg width="200" height="200" viewBox="0 0 200 200" fill="none" xmlns="http://www.w3.org/2000/svg">
<circle cx="100" cy="100" r="100" fill="#8A630A"/>
<path d="M115.531 94H83.7812V87.125L98.4062 71.75C102.01 67.6458 103.812 64.3854 103.812 61.9688C103.812 60.0104 103.385 58.5208 102.531 57.5C101.677 56.4792 100.438 55.9688 98.8125 55.9688C97.2083 55.9688 95.9062 56.6562 94.9062 58.0312C93.9062 59.3854 93.4062 61.0833 93.4062 63.125H82.8438C82.8438 60.3333 83.5417 57.7604 84.9375 55.4062C86.3333 53.0312 88.2708 51.1771 90.75 49.8438C93.2292 48.5104 96 47.8438 99.0625 47.8438C103.979 47.8438 107.76 48.9792 110.406 51.25C113.073 53.5208 114.406 56.7812 114.406 61.0312C114.406 62.8229 114.073 64.5729 113.406 66.2812C112.74 67.9688 111.698 69.75 110.281 71.625C108.885 73.4792 106.625 75.9688 103.5 79.0938L97.625 85.875H115.531V94Z" fill="white"/>
<path d="M48.9531 125.031C48.9531 124.751 48.8066 124.527 48.5137 124.357C48.2207 124.188 47.6641 124.012 46.8438 123.83C46.0234 123.648 45.3464 123.41 44.8125 123.117C44.2786 122.818 43.8717 122.456 43.5918 122.033C43.3118 121.61 43.1719 121.125 43.1719 120.578C43.1719 119.608 43.5723 118.811 44.373 118.186C45.1738 117.554 46.222 117.238 47.5176 117.238C48.9108 117.238 50.0306 117.554 50.877 118.186C51.7233 118.817 52.1465 119.647 52.1465 120.676H48.8457C48.8457 119.829 48.3997 119.406 47.5078 119.406C47.1628 119.406 46.873 119.504 46.6387 119.699C46.4043 119.888 46.2871 120.126 46.2871 120.412C46.2871 120.705 46.4303 120.943 46.7168 121.125C47.0033 121.307 47.459 121.457 48.084 121.574C48.7155 121.691 49.2689 121.831 49.7441 121.994C51.3327 122.541 52.127 123.521 52.127 124.934C52.127 125.897 51.6973 126.682 50.8379 127.287C49.985 127.893 48.8783 128.195 47.5176 128.195C46.6126 128.195 45.8053 128.033 45.0957 127.707C44.3861 127.382 43.8327 126.939 43.4355 126.379C43.0384 125.819 42.8398 125.23 42.8398 124.611H45.916C45.929 125.1 46.0918 125.458 46.4043 125.686C46.7168 125.907 47.1172 126.018 47.6055 126.018C48.0547 126.018 48.39 125.926 48.6113 125.744C48.8392 125.562 48.9531 125.324 48.9531 125.031ZM53.2598 122.619C53.2598 121.564 53.4648 120.627 53.875 119.807C54.2852 118.98 54.8743 118.345 55.6426 117.902C56.4108 117.46 57.3125 117.238 58.3477 117.238C59.9297 117.238 61.1764 117.73 62.0879 118.713C62.9993 119.689 63.4551 121.021 63.4551 122.707V122.824C63.4551 124.471 62.9961 125.78 62.0781 126.75C61.1667 127.714 59.9297 128.195 58.3672 128.195C56.8633 128.195 55.6556 127.746 54.7441 126.848C53.8327 125.943 53.3411 124.719 53.2695 123.176L53.2598 122.619ZM56.5508 122.824C56.5508 123.801 56.7038 124.517 57.0098 124.973C57.3158 125.428 57.7682 125.656 58.3672 125.656C59.5391 125.656 60.138 124.755 60.1641 122.951V122.619C60.1641 120.725 59.5586 119.777 58.3477 119.777C57.2474 119.777 56.6517 120.594 56.5605 122.229L56.5508 122.824ZM69.373 125.656C69.8353 125.656 70.1934 125.533 70.4473 125.285C70.7012 125.031 70.8249 124.68 70.8184 124.23H73.9043C73.9043 125.389 73.4876 126.34 72.6543 127.082C71.8275 127.824 70.7598 128.195 69.4512 128.195C67.9147 128.195 66.7038 127.714 65.8184 126.75C64.9329 125.786 64.4902 124.452 64.4902 122.746V122.609C64.4902 121.542 64.6855 120.601 65.0762 119.787C65.4733 118.967 66.043 118.339 66.7852 117.902C67.5273 117.46 68.4062 117.238 69.4219 117.238C70.7956 117.238 71.8861 117.619 72.6934 118.381C73.5007 119.143 73.9043 120.174 73.9043 121.477H70.8184C70.8184 120.93 70.6849 120.51 70.418 120.217C70.151 119.924 69.793 119.777 69.3438 119.777C68.4909 119.777 67.9928 120.321 67.8496 121.408C67.804 121.753 67.7812 122.229 67.7812 122.834C67.7812 123.895 67.9082 124.631 68.1621 125.041C68.416 125.451 68.8197 125.656 69.373 125.656ZM78.7676 128H75.4668V117.434H78.7676V128ZM75.2715 114.709C75.2715 114.24 75.4408 113.856 75.7793 113.557C76.1178 113.257 76.5573 113.107 77.0977 113.107C77.638 113.107 78.0775 113.257 78.416 113.557C78.7546 113.856 78.9238 114.24 78.9238 114.709C78.9238 115.178 78.7546 115.562 78.416 115.861C78.0775 116.161 77.638 116.311 77.0977 116.311C76.5573 116.311 76.1178 116.161 75.7793 115.861C75.4408 115.562 75.2715 115.178 75.2715 114.709ZM86.7559 128C86.6387 127.785 86.5345 127.469 86.4434 127.053C85.8379 127.814 84.9915 128.195 83.9043 128.195C82.9082 128.195 82.0618 127.896 81.3652 127.297C80.6686 126.691 80.3203 125.933 80.3203 125.021C80.3203 123.876 80.7435 123.01 81.5898 122.424C82.4362 121.838 83.6667 121.545 85.2812 121.545H86.2969V120.988C86.2969 120.018 85.877 119.533 85.0371 119.533C84.2559 119.533 83.8652 119.917 83.8652 120.686H80.5742C80.5742 119.663 81.0072 118.833 81.873 118.195C82.7454 117.557 83.8555 117.238 85.2031 117.238C86.5508 117.238 87.6152 117.567 88.3965 118.225C89.1777 118.882 89.5781 119.784 89.5977 120.93V125.607C89.6107 126.577 89.7604 127.32 90.0469 127.834V128H86.7559ZM84.6953 125.852C85.1055 125.852 85.444 125.764 85.7109 125.588C85.9844 125.412 86.1797 125.214 86.2969 124.992V123.303H85.3398C84.194 123.303 83.6211 123.817 83.6211 124.846C83.6211 125.145 83.722 125.389 83.9238 125.578C84.1257 125.76 84.3828 125.852 84.6953 125.852ZM94.9004 128H91.5996V113H94.9004V128ZM105.027 117.434L105.135 118.674C105.883 117.717 106.889 117.238 108.152 117.238C109.487 117.238 110.389 117.769 110.857 118.83C111.574 117.769 112.609 117.238 113.963 117.238C116.105 117.238 117.205 118.534 117.264 121.125V128H113.963V121.33C113.963 120.79 113.872 120.396 113.689 120.148C113.507 119.901 113.175 119.777 112.693 119.777C112.042 119.777 111.557 120.067 111.238 120.646L111.248 120.783V128H107.947V121.35C107.947 120.796 107.859 120.396 107.684 120.148C107.508 119.901 107.173 119.777 106.678 119.777C106.046 119.777 105.564 120.067 105.232 120.646V128H101.941V117.434H105.027ZM124.256 128.195C122.635 128.195 121.323 127.714 120.32 126.75C119.318 125.78 118.816 124.52 118.816 122.971V122.697C118.816 121.617 119.015 120.663 119.412 119.836C119.816 119.009 120.402 118.371 121.17 117.922C121.938 117.466 122.85 117.238 123.904 117.238C125.389 117.238 126.561 117.701 127.42 118.625C128.279 119.543 128.709 120.826 128.709 122.473V123.752H122.166C122.283 124.344 122.54 124.81 122.938 125.148C123.335 125.487 123.849 125.656 124.48 125.656C125.522 125.656 126.336 125.292 126.922 124.562L128.426 126.34C128.016 126.906 127.433 127.359 126.678 127.697C125.929 128.029 125.122 128.195 124.256 128.195ZM123.885 119.777C122.921 119.777 122.348 120.415 122.166 121.691H125.486V121.438C125.499 120.91 125.366 120.503 125.086 120.217C124.806 119.924 124.406 119.777 123.885 119.777ZM129.627 122.639C129.627 120.965 129.988 119.647 130.711 118.684C131.434 117.72 132.443 117.238 133.738 117.238C134.682 117.238 135.477 117.609 136.121 118.352V113H139.422V128H136.463L136.297 126.867C135.62 127.753 134.76 128.195 133.719 128.195C132.462 128.195 131.466 127.714 130.73 126.75C129.995 125.786 129.627 124.416 129.627 122.639ZM132.918 122.844C132.918 124.719 133.465 125.656 134.559 125.656C135.288 125.656 135.809 125.35 136.121 124.738V120.715C135.822 120.09 135.307 119.777 134.578 119.777C133.562 119.777 133.012 120.598 132.928 122.238L132.918 122.844ZM144.764 128H141.463V117.434H144.764V128ZM141.268 114.709C141.268 114.24 141.437 113.856 141.775 113.557C142.114 113.257 142.553 113.107 143.094 113.107C143.634 113.107 144.074 113.257 144.412 113.557C144.751 113.856 144.92 114.24 144.92 114.709C144.92 115.178 144.751 115.562 144.412 115.861C144.074 116.161 143.634 116.311 143.094 116.311C142.553 116.311 142.114 116.161 141.775 115.861C141.437 115.562 141.268 115.178 141.268 114.709ZM152.752 128C152.635 127.785 152.531 127.469 152.439 127.053C151.834 127.814 150.988 128.195 149.9 128.195C148.904 128.195 148.058 127.896 147.361 127.297C146.665 126.691 146.316 125.933 146.316 125.021C146.316 123.876 146.74 123.01 147.586 122.424C148.432 121.838 149.663 121.545 151.277 121.545H152.293V120.988C152.293 120.018 151.873 119.533 151.033 119.533C150.252 119.533 149.861 119.917 149.861 120.686H146.57C146.57 119.663 147.003 118.833 147.869 118.195C148.742 117.557 149.852 117.238 151.199 117.238C152.547 117.238 153.611 117.567 154.393 118.225C155.174 118.882 155.574 119.784 155.594 120.93V125.607C155.607 126.577 155.757 127.32 156.043 127.834V128H152.752ZM150.691 125.852C151.102 125.852 151.44 125.764 151.707 125.588C151.98 125.412 152.176 125.214 152.293 124.992V123.303H151.336C150.19 123.303 149.617 123.817 149.617 124.846C149.617 125.145 149.718 125.389 149.92 125.578C150.122 125.76 150.379 125.852 150.691 125.852ZM70.5156 148.031C70.5156 147.751 70.3691 147.527 70.0762 147.357C69.7832 147.188 69.2266 147.012 68.4062 146.83C67.5859 146.648 66.9089 146.41 66.375 146.117C65.8411 145.818 65.4342 145.456 65.1543 145.033C64.8743 144.61 64.7344 144.125 64.7344 143.578C64.7344 142.608 65.1348 141.811 65.9355 141.186C66.7363 140.554 67.7845 140.238 69.0801 140.238C70.4733 140.238 71.5931 140.554 72.4395 141.186C73.2858 141.817 73.709 142.647 73.709 143.676H70.4082C70.4082 142.829 69.9622 142.406 69.0703 142.406C68.7253 142.406 68.4355 142.504 68.2012 142.699C67.9668 142.888 67.8496 143.126 67.8496 143.412C67.8496 143.705 67.9928 143.943 68.2793 144.125C68.5658 144.307 69.0215 144.457 69.6465 144.574C70.278 144.691 70.8314 144.831 71.3066 144.994C72.8952 145.541 73.6895 146.521 73.6895 147.934C73.6895 148.897 73.2598 149.682 72.4004 150.287C71.5475 150.893 70.4408 151.195 69.0801 151.195C68.1751 151.195 67.3678 151.033 66.6582 150.707C65.9486 150.382 65.3952 149.939 64.998 149.379C64.6009 148.819 64.4023 148.23 64.4023 147.611H67.4785C67.4915 148.1 67.6543 148.458 67.9668 148.686C68.2793 148.907 68.6797 149.018 69.168 149.018C69.6172 149.018 69.9525 148.926 70.1738 148.744C70.4017 148.562 70.5156 148.324 70.5156 148.031ZM81.5312 149.857C80.8346 150.749 79.8939 151.195 78.709 151.195C77.5501 151.195 76.6712 150.86 76.0723 150.189C75.4798 149.512 75.1836 148.542 75.1836 147.279V140.434H78.4746V147.299C78.4746 148.204 78.9141 148.656 79.793 148.656C80.5482 148.656 81.0853 148.386 81.4043 147.846V140.434H84.7148V151H81.6289L81.5312 149.857ZM92.918 143.412L91.834 143.334C90.7988 143.334 90.1348 143.66 89.8418 144.311V151H86.5508V140.434H89.6367L89.7441 141.791C90.2975 140.756 91.069 140.238 92.0586 140.238C92.4102 140.238 92.7161 140.277 92.9766 140.355L92.918 143.412ZM98.4941 147.084L100.164 140.434H103.631L100.184 151H96.8242L93.377 140.434H96.8535L98.4941 147.084ZM109.588 151.195C107.967 151.195 106.655 150.714 105.652 149.75C104.65 148.78 104.148 147.52 104.148 145.971V145.697C104.148 144.617 104.347 143.663 104.744 142.836C105.148 142.009 105.734 141.371 106.502 140.922C107.27 140.466 108.182 140.238 109.236 140.238C110.721 140.238 111.893 140.701 112.752 141.625C113.611 142.543 114.041 143.826 114.041 145.473V146.752H107.498C107.615 147.344 107.872 147.81 108.27 148.148C108.667 148.487 109.181 148.656 109.812 148.656C110.854 148.656 111.668 148.292 112.254 147.562L113.758 149.34C113.348 149.906 112.765 150.359 112.01 150.697C111.261 151.029 110.454 151.195 109.588 151.195ZM109.217 142.777C108.253 142.777 107.68 143.415 107.498 144.691H110.818V144.438C110.831 143.91 110.698 143.503 110.418 143.217C110.138 142.924 109.738 142.777 109.217 142.777ZM119.461 146.391L121.219 140.434H124.744L120.438 152.768L120.252 153.217C119.64 154.584 118.559 155.268 117.01 155.268C116.58 155.268 116.128 155.202 115.652 155.072V152.719H116.082C116.544 152.719 116.896 152.65 117.137 152.514C117.384 152.383 117.566 152.146 117.684 151.801L117.947 151.098L114.275 140.434H117.791L119.461 146.391ZM131.141 148.031C131.141 147.751 130.994 147.527 130.701 147.357C130.408 147.188 129.852 147.012 129.031 146.83C128.211 146.648 127.534 146.41 127 146.117C126.466 145.818 126.059 145.456 125.779 145.033C125.499 144.61 125.359 144.125 125.359 143.578C125.359 142.608 125.76 141.811 126.561 141.186C127.361 140.554 128.41 140.238 129.705 140.238C131.098 140.238 132.218 140.554 133.064 141.186C133.911 141.817 134.334 142.647 134.334 143.676H131.033C131.033 142.829 130.587 142.406 129.695 142.406C129.35 142.406 129.061 142.504 128.826 142.699C128.592 142.888 128.475 143.126 128.475 143.412C128.475 143.705 128.618 143.943 128.904 144.125C129.191 144.307 129.646 144.457 130.271 144.574C130.903 144.691 131.456 144.831 131.932 144.994C133.52 145.541 134.314 146.521 134.314 147.934C134.314 148.897 133.885 149.682 133.025 150.287C132.173 150.893 131.066 151.195 129.705 151.195C128.8 151.195 127.993 151.033 127.283 150.707C126.574 150.382 126.02 149.939 125.623 149.379C125.226 148.819 125.027 148.23 125.027 147.611H128.104C128.117 148.1 128.279 148.458 128.592 148.686C128.904 148.907 129.305 149.018 129.793 149.018C130.242 149.018 130.577 148.926 130.799 148.744C131.027 148.562 131.141 148.324 131.141 148.031Z" fill="white"/>
</svg>
