<svg width="200" height="200" viewBox="0 0 200 200" fill="none" xmlns="http://www.w3.org/2000/svg">
<circle cx="100" cy="100" r="100" fill="#8A630A"/>
<path d="M84.4062 71.75L87.1875 48.5H113.781V56.6875H95.75L94.7188 65.7188C95.4688 65.2812 96.4479 64.8958 97.6562 64.5625C98.8854 64.2292 100.083 64.0625 101.25 64.0625C105.771 64.0625 109.24 65.4062 111.656 68.0938C114.094 70.7604 115.312 74.5104 115.312 79.3438C115.312 82.2604 114.656 84.9062 113.344 87.2812C112.052 89.6354 110.229 91.4479 107.875 92.7188C105.521 93.9896 102.74 94.625 99.5312 94.625C96.6771 94.625 94 94.0417 91.5 92.875C89 91.6875 87.0417 90.0729 85.625 88.0312C84.2083 85.9688 83.5104 83.6458 83.5312 81.0625H94.0938C94.1979 82.7292 94.7292 84.0521 95.6875 85.0312C96.6458 86.0104 97.9062 86.5 99.4688 86.5C103.01 86.5 104.781 83.875 104.781 78.625C104.781 73.7708 102.615 71.3438 98.2812 71.3438C95.8229 71.3438 93.9896 72.1354 92.7812 73.7188L84.4062 71.75Z" fill="white"/>
<path d="M46.3262 122.619C46.3262 121.564 46.5312 120.627 46.9414 119.807C47.3516 118.98 47.9408 118.345 48.709 117.902C49.4772 117.46 50.3789 117.238 51.4141 117.238C52.9961 117.238 54.2428 117.73 55.1543 118.713C56.0658 119.689 56.5215 121.021 56.5215 122.707V122.824C56.5215 124.471 56.0625 125.78 55.1445 126.75C54.2331 127.714 52.9961 128.195 51.4336 128.195C49.9297 128.195 48.722 127.746 47.8105 126.848C46.8991 125.943 46.4076 124.719 46.3359 123.176L46.3262 122.619ZM49.6172 122.824C49.6172 123.801 49.7702 124.517 50.0762 124.973C50.3822 125.428 50.8346 125.656 51.4336 125.656C52.6055 125.656 53.2044 124.755 53.2305 122.951V122.619C53.2305 120.725 52.625 119.777 51.4141 119.777C50.3138 119.777 49.7181 120.594 49.627 122.229L49.6172 122.824ZM60.9941 117.434L61.1016 118.674C61.8307 117.717 62.8366 117.238 64.1191 117.238C65.2194 117.238 66.0397 117.567 66.5801 118.225C67.127 118.882 67.4102 119.872 67.4297 121.193V128H64.1289V121.33C64.1289 120.796 64.0215 120.406 63.8066 120.158C63.5918 119.904 63.2012 119.777 62.6348 119.777C61.9902 119.777 61.5117 120.031 61.1992 120.539V128H57.9082V117.434H60.9941ZM74.373 128.195C72.752 128.195 71.4401 127.714 70.4375 126.75C69.4349 125.78 68.9336 124.52 68.9336 122.971V122.697C68.9336 121.617 69.1322 120.663 69.5293 119.836C69.9329 119.009 70.5189 118.371 71.2871 117.922C72.0553 117.466 72.9668 117.238 74.0215 117.238C75.5059 117.238 76.6777 117.701 77.5371 118.625C78.3965 119.543 78.8262 120.826 78.8262 122.473V123.752H72.2832C72.4004 124.344 72.6576 124.81 73.0547 125.148C73.4518 125.487 73.9661 125.656 74.5977 125.656C75.6393 125.656 76.4531 125.292 77.0391 124.562L78.543 126.34C78.1328 126.906 77.5501 127.359 76.7949 127.697C76.0462 128.029 75.2389 128.195 74.373 128.195ZM74.002 119.777C73.0384 119.777 72.4655 120.415 72.2832 121.691H75.6035V121.438C75.6165 120.91 75.4831 120.503 75.2031 120.217C74.9232 119.924 74.5228 119.777 74.002 119.777ZM86.5898 123.146H80.7207V120.598H86.5898V123.146ZM88.748 122.619C88.748 121.564 88.9531 120.627 89.3633 119.807C89.7734 118.98 90.3626 118.345 91.1309 117.902C91.8991 117.46 92.8008 117.238 93.8359 117.238C95.418 117.238 96.6647 117.73 97.5762 118.713C98.4876 119.689 98.9434 121.021 98.9434 122.707V122.824C98.9434 124.471 98.4844 125.78 97.5664 126.75C96.6549 127.714 95.418 128.195 93.8555 128.195C92.3516 128.195 91.1439 127.746 90.2324 126.848C89.321 125.943 88.8294 124.719 88.7578 123.176L88.748 122.619ZM92.0391 122.824C92.0391 123.801 92.1921 124.517 92.498 124.973C92.804 125.428 93.2565 125.656 93.8555 125.656C95.0273 125.656 95.6263 124.755 95.6523 122.951V122.619C95.6523 120.725 95.0469 119.777 93.8359 119.777C92.7357 119.777 92.14 120.594 92.0488 122.229L92.0391 122.824ZM103.416 117.434L103.523 118.674C104.253 117.717 105.258 117.238 106.541 117.238C107.641 117.238 108.462 117.567 109.002 118.225C109.549 118.882 109.832 119.872 109.852 121.193V128H106.551V121.33C106.551 120.796 106.443 120.406 106.229 120.158C106.014 119.904 105.623 119.777 105.057 119.777C104.412 119.777 103.934 120.031 103.621 120.539V128H100.33V117.434H103.416ZM118.113 123.146H112.244V120.598H118.113V123.146ZM120.271 122.619C120.271 121.564 120.477 120.627 120.887 119.807C121.297 118.98 121.886 118.345 122.654 117.902C123.423 117.46 124.324 117.238 125.359 117.238C126.941 117.238 128.188 117.73 129.1 118.713C130.011 119.689 130.467 121.021 130.467 122.707V122.824C130.467 124.471 130.008 125.78 129.09 126.75C128.178 127.714 126.941 128.195 125.379 128.195C123.875 128.195 122.667 127.746 121.756 126.848C120.844 125.943 120.353 124.719 120.281 123.176L120.271 122.619ZM123.562 122.824C123.562 123.801 123.715 124.517 124.021 124.973C124.327 125.428 124.78 125.656 125.379 125.656C126.551 125.656 127.15 124.755 127.176 122.951V122.619C127.176 120.725 126.57 119.777 125.359 119.777C124.259 119.777 123.663 120.594 123.572 122.229L123.562 122.824ZM134.939 117.434L135.047 118.674C135.776 117.717 136.782 117.238 138.064 117.238C139.165 117.238 139.985 117.567 140.525 118.225C141.072 118.882 141.355 119.872 141.375 121.193V128H138.074V121.33C138.074 120.796 137.967 120.406 137.752 120.158C137.537 119.904 137.146 119.777 136.58 119.777C135.936 119.777 135.457 120.031 135.145 120.539V128H131.854V117.434H134.939ZM148.318 128.195C146.697 128.195 145.385 127.714 144.383 126.75C143.38 125.78 142.879 124.52 142.879 122.971V122.697C142.879 121.617 143.077 120.663 143.475 119.836C143.878 119.009 144.464 118.371 145.232 117.922C146.001 117.466 146.912 117.238 147.967 117.238C149.451 117.238 150.623 117.701 151.482 118.625C152.342 119.543 152.771 120.826 152.771 122.473V123.752H146.229C146.346 124.344 146.603 124.81 147 125.148C147.397 125.487 147.911 125.656 148.543 125.656C149.585 125.656 150.398 125.292 150.984 124.562L152.488 126.34C152.078 126.906 151.495 127.359 150.74 127.697C149.992 128.029 149.184 128.195 148.318 128.195ZM147.947 119.777C146.984 119.777 146.411 120.415 146.229 121.691H149.549V121.438C149.562 120.91 149.428 120.503 149.148 120.217C148.868 119.924 148.468 119.777 147.947 119.777ZM56.9707 151H53.6699V140.434H56.9707V151ZM53.4746 137.709C53.4746 137.24 53.6439 136.856 53.9824 136.557C54.321 136.257 54.7604 136.107 55.3008 136.107C55.8411 136.107 56.2806 136.257 56.6191 136.557C56.9577 136.856 57.127 137.24 57.127 137.709C57.127 138.178 56.9577 138.562 56.6191 138.861C56.2806 139.161 55.8411 139.311 55.3008 139.311C54.7604 139.311 54.321 139.161 53.9824 138.861C53.6439 138.562 53.4746 138.178 53.4746 137.709ZM62.0293 140.434L62.1367 141.674C62.8659 140.717 63.8717 140.238 65.1543 140.238C66.2546 140.238 67.0749 140.567 67.6152 141.225C68.1621 141.882 68.4453 142.872 68.4648 144.193V151H65.1641V144.33C65.1641 143.796 65.0566 143.406 64.8418 143.158C64.627 142.904 64.2363 142.777 63.6699 142.777C63.0254 142.777 62.5469 143.031 62.2344 143.539V151H58.9434V140.434H62.0293ZM74.1289 137.807V140.434H75.8672V142.719H74.1289V147.553C74.1289 147.95 74.2005 148.227 74.3438 148.383C74.487 148.539 74.7702 148.617 75.1934 148.617C75.5189 148.617 75.7923 148.598 76.0137 148.559V150.912C75.4212 151.101 74.8027 151.195 74.1582 151.195C73.0254 151.195 72.1888 150.928 71.6484 150.395C71.1081 149.861 70.8379 149.05 70.8379 147.963V142.719H69.4902V140.434H70.8379V137.807H74.1289ZM82.2832 151.195C80.6621 151.195 79.3503 150.714 78.3477 149.75C77.3451 148.78 76.8438 147.52 76.8438 145.971V145.697C76.8438 144.617 77.0423 143.663 77.4395 142.836C77.8431 142.009 78.429 141.371 79.1973 140.922C79.9655 140.466 80.877 140.238 81.9316 140.238C83.416 140.238 84.5879 140.701 85.4473 141.625C86.3066 142.543 86.7363 143.826 86.7363 145.473V146.752H80.1934C80.3105 147.344 80.5677 147.81 80.9648 148.148C81.362 148.487 81.8763 148.656 82.5078 148.656C83.5495 148.656 84.3633 148.292 84.9492 147.562L86.4531 149.34C86.043 149.906 85.4603 150.359 84.7051 150.697C83.9564 151.029 83.1491 151.195 82.2832 151.195ZM81.9121 142.777C80.9486 142.777 80.3757 143.415 80.1934 144.691H83.5137V144.438C83.5267 143.91 83.3932 143.503 83.1133 143.217C82.8333 142.924 82.4329 142.777 81.9121 142.777ZM94.4609 143.412L93.377 143.334C92.3418 143.334 91.6777 143.66 91.3848 144.311V151H88.0938V140.434H91.1797L91.2871 141.791C91.8405 140.756 92.612 140.238 93.6016 140.238C93.9531 140.238 94.2591 140.277 94.5195 140.355L94.4609 143.412ZM100.037 147.084L101.707 140.434H105.174L101.727 151H98.3672L94.9199 140.434H98.3965L100.037 147.084ZM109.627 151H106.326V140.434H109.627V151ZM106.131 137.709C106.131 137.24 106.3 136.856 106.639 136.557C106.977 136.257 107.417 136.107 107.957 136.107C108.497 136.107 108.937 136.257 109.275 136.557C109.614 136.856 109.783 137.24 109.783 137.709C109.783 138.178 109.614 138.562 109.275 138.861C108.937 139.161 108.497 139.311 107.957 139.311C107.417 139.311 106.977 139.161 106.639 138.861C106.3 138.562 106.131 138.178 106.131 137.709ZM116.775 151.195C115.154 151.195 113.842 150.714 112.84 149.75C111.837 148.78 111.336 147.52 111.336 145.971V145.697C111.336 144.617 111.535 143.663 111.932 142.836C112.335 142.009 112.921 141.371 113.689 140.922C114.458 140.466 115.369 140.238 116.424 140.238C117.908 140.238 119.08 140.701 119.939 141.625C120.799 142.543 121.229 143.826 121.229 145.473V146.752H114.686C114.803 147.344 115.06 147.81 115.457 148.148C115.854 148.487 116.368 148.656 117 148.656C118.042 148.656 118.855 148.292 119.441 147.562L120.945 149.34C120.535 149.906 119.952 150.359 119.197 150.697C118.449 151.029 117.641 151.195 116.775 151.195ZM116.404 142.777C115.441 142.777 114.868 143.415 114.686 144.691H118.006V144.438C118.019 143.91 117.885 143.503 117.605 143.217C117.326 142.924 116.925 142.777 116.404 142.777ZM131.688 146.664L132.752 140.434H135.906L133.416 151H130.633L128.885 144.73L127.127 151H124.344L121.854 140.434H125.008L126.053 146.811L127.732 140.434H130.027L131.688 146.664ZM142.625 148.031C142.625 147.751 142.479 147.527 142.186 147.357C141.893 147.188 141.336 147.012 140.516 146.83C139.695 146.648 139.018 146.41 138.484 146.117C137.951 145.818 137.544 145.456 137.264 145.033C136.984 144.61 136.844 144.125 136.844 143.578C136.844 142.608 137.244 141.811 138.045 141.186C138.846 140.554 139.894 140.238 141.189 140.238C142.583 140.238 143.702 140.554 144.549 141.186C145.395 141.817 145.818 142.647 145.818 143.676H142.518C142.518 142.829 142.072 142.406 141.18 142.406C140.835 142.406 140.545 142.504 140.311 142.699C140.076 142.888 139.959 143.126 139.959 143.412C139.959 143.705 140.102 143.943 140.389 144.125C140.675 144.307 141.131 144.457 141.756 144.574C142.387 144.691 142.941 144.831 143.416 144.994C145.005 145.541 145.799 146.521 145.799 147.934C145.799 148.897 145.369 149.682 144.51 150.287C143.657 150.893 142.55 151.195 141.189 151.195C140.285 151.195 139.477 151.033 138.768 150.707C138.058 150.382 137.505 149.939 137.107 149.379C136.71 148.819 136.512 148.23 136.512 147.611H139.588C139.601 148.1 139.764 148.458 140.076 148.686C140.389 148.907 140.789 149.018 141.277 149.018C141.727 149.018 142.062 148.926 142.283 148.744C142.511 148.562 142.625 148.324 142.625 148.031Z" fill="white"/>
</svg>
