<svg width="79" height="105" viewBox="0 0 79 105" fill="none" xmlns="http://www.w3.org/2000/svg">
<path d="M17.4582 21.0713V76.9229C17.4582 82.9341 14.3885 85.9396 8.24907 85.9396C6.6265 85.9396 4.54348 85.745 2 85.3558V101.897C5.28898 102.632 8.7753 103 12.459 103C21.0103 103 27.676 100.751 32.456 96.2537C37.236 91.7562 39.1986 84.7331 39.2425 76.4299V32.8125V27.2338C39.2425 19.2334 41.6325 13.0276 46.4125 8.61657C51.1925 4.20552 57.902 2 66.541 2C69.6985 2 73.1629 2.45408 76.9342 3.36224L77 19.4496C75.6406 19.0604 73.8207 18.8658 71.5403 18.8658C64.8308 18.8658 61.476 21.72 61.476 27.4284V32.8125H75.3555V47.9916H61.476V83.0724" stroke="#FFC233" stroke-width="3"/>
</svg>
