<svg width="690" height="342" viewBox="0 0 690 342" fill="none" xmlns="http://www.w3.org/2000/svg">
<path d="M603.222 1.1438V130.385C603.222 145.031 600.109 157.734 593.881 168.492C587.654 179.161 578.719 187.298 567.076 192.903C555.434 198.508 541.67 201.311 525.786 201.311C501.779 201.311 482.871 195.073 469.062 182.596C455.254 170.12 448.214 153.032 447.943 131.334V1.1438H495.732V132.283C496.273 153.891 506.291 164.695 525.786 164.695C535.623 164.695 543.069 161.983 548.123 156.558C553.177 151.134 555.704 142.319 555.704 130.113V1.1438H603.222Z" fill="white"/>
<path d="M676.706 198.599H629.323V1.1438H676.706V198.599Z" fill="white"/>
<path fill-rule="evenodd" clip-rule="evenodd" d="M404.525 0H438.08L382.306 197.88H348.863L404.525 0ZM410.123 7.39737L358.622 190.482H376.712L428.316 7.39737H410.123Z" fill="white"/>
<path d="M155.313 1.1438V130.385C155.313 145.031 152.199 157.734 145.97 168.492C139.741 179.161 130.804 187.298 119.159 192.903C107.514 198.508 93.7477 201.311 77.8598 201.311C53.8474 201.311 34.9353 195.073 21.1237 182.596C7.31205 170.12 0.270817 153.032 0 131.334V1.1438H47.7991V132.283C48.3408 153.891 58.361 164.695 77.8598 164.695C87.6994 164.695 95.1469 161.983 100.202 156.558C105.257 151.134 107.785 142.319 107.785 130.113V1.1438H155.313Z" fill="white"/>
<path d="M251.697 66.7813L283.924 1.1438H338.223L283.112 99.0576L339.712 198.599H284.872L251.697 131.741L218.522 198.599H163.817L220.282 99.0576L165.306 1.1438H219.47L251.697 66.7813Z" fill="white"/>
<path d="M0.568573 340.548V234.862H34.4768C43.7793 234.862 52.1418 236.991 59.5645 241.25C66.9872 245.46 72.7711 251.436 76.9163 259.179C81.1096 266.873 83.2304 275.511 83.2786 285.092V289.955C83.2786 299.634 81.2301 308.32 77.1332 316.014C73.0844 323.66 67.3487 329.66 59.926 334.015C52.5515 338.322 44.3094 340.5 35.1998 340.548H0.568573ZM25.9455 254.533V320.95H34.766C42.0441 320.95 47.6352 318.361 51.5393 313.183C55.4435 307.957 57.3956 300.214 57.3956 289.955V285.382C57.3956 275.172 55.4435 267.478 51.5393 262.3C47.6352 257.122 41.9477 254.533 34.4768 254.533H25.9455Z" fill="white"/>
<path d="M161.578 295.762H121.669V320.95H168.808V340.548H96.2924V234.862H168.953V254.533H121.669V276.817H161.578V295.762Z" fill="white"/>
<path d="M233.444 312.457C233.444 308.731 232.118 305.828 229.467 303.747C226.864 301.666 222.261 299.513 215.658 297.287C209.055 295.061 203.656 292.907 199.463 290.826C185.823 284.1 179.002 274.857 179.002 263.098C179.002 257.243 180.689 252.089 184.063 247.637C187.485 243.137 192.305 239.653 198.523 237.185C204.741 234.669 211.73 233.41 219.49 233.41C227.057 233.41 233.829 234.765 239.806 237.475C245.831 240.185 250.506 244.056 253.832 249.089C257.158 254.073 258.82 259.784 258.82 266.22H233.516C233.516 261.913 232.19 258.574 229.539 256.203C226.937 253.831 223.394 252.646 218.911 252.646C214.381 252.646 210.79 253.662 208.139 255.694C205.536 257.678 204.235 260.219 204.235 263.316C204.235 266.026 205.681 268.494 208.573 270.72C211.465 272.897 216.55 275.172 223.828 277.543C231.106 279.866 237.083 282.382 241.758 285.092C253.133 291.673 258.82 300.747 258.82 312.312C258.82 321.555 255.35 328.813 248.409 334.088C241.469 339.363 231.949 342 219.851 342C211.32 342 203.584 340.476 196.643 337.427C189.751 334.33 184.545 330.12 181.027 324.797C177.556 319.426 175.821 313.256 175.821 306.287H201.27C201.27 311.949 202.716 316.135 205.608 318.845C208.549 321.506 213.296 322.837 219.851 322.837C224.045 322.837 227.346 321.942 229.756 320.151C232.214 318.313 233.444 315.748 233.444 312.457Z" fill="white"/>
<path d="M298.874 340.548H273.569V234.862H298.874V340.548Z" fill="white"/>
<path d="M402.695 327.483C398.791 331.838 393.08 335.346 385.561 338.008C378.041 340.669 369.799 342 360.834 342C347.049 342 336.036 337.766 327.794 329.297C319.552 320.829 315.141 309.046 314.563 293.948L314.491 284.802C314.491 274.398 316.322 265.324 319.985 257.582C323.649 249.791 328.878 243.814 335.674 239.653C342.519 235.443 350.423 233.338 359.388 233.338C372.499 233.338 382.669 236.362 389.898 242.411C397.177 248.412 401.418 257.388 402.623 269.341H378.186C377.318 263.437 375.439 259.227 372.547 256.711C369.655 254.194 365.558 252.936 360.256 252.936C353.894 252.936 348.977 255.646 345.507 261.066C342.037 266.486 340.277 274.228 340.229 284.294V290.681C340.229 301.23 342.012 309.167 345.579 314.49C349.194 319.764 354.858 322.402 362.569 322.402C369.173 322.402 374.089 320.926 377.318 317.974V301.569H359.677V284.076H402.695V327.483Z" fill="white"/>
<path d="M505.36 340.548H480.128L442.821 274.785V340.548H417.444V234.862H442.821L480.055 300.626V234.862H505.36V340.548Z" fill="white"/>
<path d="M586.696 295.762H546.787V320.95H593.926V340.548H521.41V234.862H594.071V254.533H546.787V276.817H586.696V295.762Z" fill="white"/>
<path d="M643.379 303.239H629.642V340.548H604.265V234.862H645.692C658.176 234.862 667.936 237.645 674.973 243.21C682.01 248.775 685.529 256.638 685.529 266.8C685.529 274.156 684.035 280.253 681.046 285.092C678.106 289.931 673.479 293.851 667.165 296.851L689.144 339.459V340.548H661.959L643.379 303.239ZM629.642 283.568H645.692C650.512 283.568 654.127 282.31 656.537 279.793C658.995 277.228 660.224 273.672 660.224 269.123C660.224 264.574 658.995 261.017 656.537 258.453C654.079 255.84 650.464 254.533 645.692 254.533H629.642V283.568Z" fill="white"/>
</svg>
